<?xml version="1.0" encoding="UTF-8"?>
<svg version="1.1" xmlns="http://www.w3.org/2000/svg" width="296" height="170">
<path d="M0 0 C97.68 0 195.36 0 296 0 C296 56.1 296 112.2 296 170 C198.32 170 100.64 170 0 170 C0 113.9 0 57.8 0 0 Z " fill="#000000" transform="translate(0,0)"/>
<path d="M0 0 C-0.66 1.32 -1.32 2.64 -2 4 C-3.32 4 -4.64 4 -6 4 C-3.16541556 9.77372322 -0.25633172 15.45217559 3 21 C3.99 20.67 4.98 20.34 6 20 C8.1875 20.9375 8.1875 20.9375 10 22 C10 22.99 10 23.98 10 25 C8.34385343 25.38218767 6.67542976 25.71395102 5 26 C4.67 25.67 4.34 25.34 4 25 C3.505 26.485 3.505 26.485 3 28 C2.01 28.33 1.02 28.66 0 29 C-0.474375 29.969375 -0.94875 30.93875 -1.4375 31.9375 C-3 35 -3 35 -7 37 C-6.505 42.94 -6.505 42.94 -6 49 C-6.99 49.495 -6.99 49.495 -8 50 C-9.88391785 46.73454239 -10.49287967 43.71888239 -11 40 C-12.32 40 -13.64 40 -15 40 C-15 40.66 -15 41.32 -15 42 C-17.72827365 42.50534727 -20.45744694 43.00443845 -23.1875 43.5 C-23.95642578 43.64308594 -24.72535156 43.78617188 -25.51757812 43.93359375 C-29.39421773 44.63238715 -33.041471 45.19039017 -37 45 C-38.27253436 41.35206816 -39.32829194 37.8063457 -40 34 C-39.01 33.505 -39.01 33.505 -38 33 C-38 32.34 -38 31.68 -38 31 C-34.92805092 29.46402546 -32.39755707 29.7734962 -29 30 C-25.5625 31.5 -25.5625 31.5 -23 33 C-24.98 33.495 -24.98 33.495 -27 34 C-27 35.32 -27 36.64 -27 38 C-26.01 38 -25.02 38 -24 38 C-24 38.66 -24 39.32 -24 40 C-18.60204011 38.84941444 -13.29012667 37.57578241 -8 36 C-7.67 34.35 -7.34 32.7 -7 31 C-6.34 31 -5.68 31 -5 31 C-5 30.34 -5 29.68 -5 29 C-4.34 28.34 -3.68 27.68 -3 27 C-4.88846183 24.67133771 -4.88846183 24.67133771 -8.0390625 24.8046875 C-9.22242188 24.82789062 -10.40578125 24.85109375 -11.625 24.875 C-13.40777344 24.90207031 -13.40777344 24.90207031 -15.2265625 24.9296875 C-16.59941406 24.96449219 -16.59941406 24.96449219 -18 25 C-18 25.66 -18 26.32 -18 27 C-15.69 27 -13.38 27 -11 27 C-11 27.33 -11 27.66 -11 28 C-14.96 28 -18.92 28 -23 28 C-23 27.01 -23 26.02 -23 25 C-23.64324219 25.32742187 -24.28648437 25.65484375 -24.94921875 25.9921875 C-28.98117797 27.32412793 -32.60066065 27.21679197 -36.8125 27.125 C-37.99489258 27.11146484 -37.99489258 27.11146484 -39.20117188 27.09765625 C-41.13424666 27.07422504 -43.0671638 27.03835838 -45 27 C-45.33 26.34 -45.66 25.68 -46 25 C-42.7 24.34 -39.4 23.68 -36 23 C-36.99 22.01 -37.98 21.02 -39 20 C-39 16.5625 -39 16.5625 -38 13 C-35.625 10.6875 -35.625 10.6875 -33 9 C-32.01 8.34 -31.02 7.68 -30 7 C-24.44444444 7.55555556 -24.44444444 7.55555556 -23 9 C-21.62426759 8.86124587 -20.24939637 8.71391655 -18.875 8.5625 C-15.61505706 8.48426137 -14.39706199 8.6721176 -11.84765625 10.77734375 C-10.11785361 12.79014068 -8.51303852 14.82044612 -7 17 C-7.2165625 16.33613281 -7.433125 15.67226562 -7.65625 14.98828125 C-7.9346875 14.10527344 -8.213125 13.22226563 -8.5 12.3125 C-8.7784375 11.44238281 -9.056875 10.57226562 -9.34375 9.67578125 C-10.19048871 6.22330496 -10.73356963 3.29453465 -8.9375 0.125 C-5.88430685 -1.64782183 -3.33588292 -0.69235306 0 0 Z " fill="#111111" transform="translate(160,62)"/>
<path d="M0 0 C0.99 0.33 1.98 0.66 3 1 C2.67 1.66 2.34 2.32 2 3 C1.63234839 7.64816683 2.43696558 10.60100855 4.5 14.75 C7 19.83333333 7 19.83333333 7 22 C7.66 22 8.32 22 9 22 C9 22.66 9 23.32 9 24 C6.36 23.67 3.72 23.34 1 23 C0.731875 22.195625 0.46375 21.39125 0.1875 20.5625 C-0.4003125 19.2940625 -0.4003125 19.2940625 -1 18 C-1.99 17.67 -2.98 17.34 -4 17 C-4 17.99 -4 18.98 -4 20 C-7.61973402 21.31626692 -10.09567131 22 -14 22 C-14 22.99 -14 23.98 -14 25 C-19.11236781 27.07434732 -23.46330893 27.24424065 -28.875 27.125 C-30.050625 27.11146484 -30.050625 27.11146484 -31.25 27.09765625 C-33.16680055 27.07428063 -35.08344191 27.03841653 -37 27 C-37.33 26.34 -37.66 25.68 -38 25 C-34.7 24.34 -31.4 23.68 -28 23 C-28.99 22.01 -29.98 21.02 -31 20 C-31 16.5625 -31 16.5625 -30 13 C-27.625 10.6875 -27.625 10.6875 -25 9 C-24.01 8.34 -23.02 7.68 -22 7 C-16.44444444 7.55555556 -16.44444444 7.55555556 -15 9 C-13.62426759 8.86124587 -12.24939637 8.71391655 -10.875 8.5625 C-7.61505706 8.48426137 -6.39706199 8.6721176 -3.84765625 10.77734375 C-2.11785361 12.79014068 -0.51303852 14.82044612 1 17 C0.7834375 16.33613281 0.566875 15.67226562 0.34375 14.98828125 C0.0653125 14.10527344 -0.213125 13.22226563 -0.5 12.3125 C-0.7784375 11.44238281 -1.056875 10.57226562 -1.34375 9.67578125 C-2.0092269 6.9623784 -2.26514394 4.77927669 -2 2 C-1.34 1.34 -0.68 0.68 0 0 Z " fill="#DDDDDD" transform="translate(152,62)"/>
<path d="M0 0 C2.27057377 -0.05398987 4.54151288 -0.09278742 6.8125 -0.125 C8.07707031 -0.14820312 9.34164062 -0.17140625 10.64453125 -0.1953125 C14 0 14 0 17 2 C19.83013765 2.17003882 22.54874332 2.23285378 25.375 2.1875 C26.50808594 2.1865332 26.50808594 2.1865332 27.6640625 2.18554688 C31.56788467 2.15483499 35.18892377 1.94897317 39 1 C39 1.99 39 2.98 39 4 C40.65 3.67 42.3 3.34 44 3 C44 2.34 44 1.68 44 1 C46.10277123 0.77802415 48.20732302 0.57286363 50.3125 0.375 C51.48425781 0.25898437 52.65601563 0.14296875 53.86328125 0.0234375 C57 0 57 0 60 2 C59.67 2.99 59.34 3.98 59 5 C58.34 5 57.68 5 57 5 C57 5.66 57 6.32 57 7 C56.34 7 55.68 7 55 7 C54.979375 7.763125 54.95875 8.52625 54.9375 9.3125 C54 12 54 12 51 13.75 C46.77889915 15.30329491 42.46325902 15.70649771 38 16 C38 15.34 38 14.68 38 14 C37.01 14 36.02 14 35 14 C35 12.68 35 11.36 35 10 C35.99 9.67 36.98 9.34 38 9 C33.35150485 6.6007767 29.08913926 6.80042591 24 7 C24 7.66 24 8.32 24 9 C21.75 9.75 21.75 9.75 19 10 C16.6875 8.0625 16.6875 8.0625 15 6 C14.01 6.66 13.02 7.32 12 8 C9.40625 8.01171875 9.40625 8.01171875 6.5 7.6875 C5.5409375 7.58824219 4.581875 7.48898438 3.59375 7.38671875 C1 7 1 7 -2 6 C-2 5.34 -2 4.68 -2 4 C-2.99 3.67 -3.98 3.34 -5 3 C-4.360625 2.87625 -3.72125 2.7525 -3.0625 2.625 C-2.0415625 2.315625 -2.0415625 2.315625 -1 2 C-0.67 1.34 -0.34 0.68 0 0 Z M0 4 C0 4.33 0 4.66 0 5 C2.31 5.33 4.62 5.66 7 6 C7.66 5.01 8.32 4.02 9 3 C9.99 2.34 10.98 1.68 12 1 C7.12335991 0.65166856 4.22949995 1.58314288 0 4 Z " fill="#040404" transform="translate(98,86)"/>
<path d="M0 0 C3.4375 1.5 3.4375 1.5 6 3 C4.68 3.33 3.36 3.66 2 4 C2 5.32 2 6.64 2 8 C2.99 8 3.98 8 5 8 C5 9.65 5 11.3 5 13 C-3.42857143 15.28571429 -3.42857143 15.28571429 -8 15 C-9.27253436 11.35206816 -10.32829194 7.8063457 -11 4 C-10.34 3.67 -9.68 3.34 -9 3 C-9 2.34 -9 1.68 -9 1 C-5.92805092 -0.53597454 -3.39755707 -0.2265038 0 0 Z " fill="#797979" transform="translate(131,92)"/>
<path d="M0 0 C0.99 0.33 1.98 0.66 3 1 C2.67 1.66 2.34 2.32 2 3 C1.63234839 7.64816683 2.43696558 10.60100855 4.5 14.75 C7 19.83333333 7 19.83333333 7 22 C7.66 22 8.32 22 9 22 C9 22.66 9 23.32 9 24 C6.36 23.67 3.72 23.34 1 23 C0.731875 22.195625 0.46375 21.39125 0.1875 20.5625 C-0.4003125 19.2940625 -0.4003125 19.2940625 -1 18 C-1.99 17.67 -2.98 17.34 -4 17 C-4 17.99 -4 18.98 -4 20 C-7.61973402 21.31626692 -10.09567131 22 -14 22 C-14 22.99 -14 23.98 -14 25 C-19.11236781 27.07434732 -23.46330893 27.24424065 -28.875 27.125 C-30.050625 27.11146484 -30.050625 27.11146484 -31.25 27.09765625 C-33.16680055 27.07428063 -35.08344191 27.03841653 -37 27 C-37 26.67 -37 26.34 -37 26 C-35.46279297 25.92652344 -35.46279297 25.92652344 -33.89453125 25.8515625 C-32.5338294 25.77648929 -31.17315356 25.70094345 -29.8125 25.625 C-29.13896484 25.5940625 -28.46542969 25.563125 -27.77148438 25.53125 C-23.83319476 25.30071597 -20.47921585 24.9263455 -17 23 C-16.67 22.01 -16.34 21.02 -16 20 C-14.0390625 19.41015625 -14.0390625 19.41015625 -11.625 19.0625 C-7.83423458 18.38795155 -7.83423458 18.38795155 -4.9375 15.875 C-4.628125 15.25625 -4.31875 14.6375 -4 14 C-2.68 14.66 -1.36 15.32 0 16 C0.16426031 12.96492358 0.16426031 12.96492358 -1 10.125 C-1.95366837 7.14478633 -2.34352563 5.09173063 -2 2 C-1.34 1.34 -0.68 0.68 0 0 Z " fill="#777777" transform="translate(152,62)"/>
<path d="M0 0 C1.875 0.25 1.875 0.25 4 1 C5.375 2.8125 5.375 2.8125 6 5 C5.07451225 7.69933926 4.57626463 8.71186768 2 10 C-0.32919416 10.47011258 -2.66373367 10.89281713 -5.00390625 11.3046875 C-5.66261719 11.53414062 -6.32132813 11.76359375 -7 12 C-7.33 12.99 -7.66 13.98 -8 15 C-12.23472374 17.44528981 -16.56586904 17.23528812 -21.3125 17.125 C-22.05306641 17.11597656 -22.79363281 17.10695313 -23.55664062 17.09765625 C-25.37123467 17.07424213 -27.18566071 17.03837615 -29 17 C-29 16.67 -29 16.34 -29 16 C-25.7 15.34 -22.4 14.68 -19 14 C-19.99 12.68 -20.98 11.36 -22 10 C-21.01 9.67 -20.02 9.34 -19 9 C-18.34 9.33 -17.68 9.66 -17 10 C-17 10.66 -17 11.32 -17 12 C-16.34 12.33 -15.68 12.66 -15 13 C-15 13.66 -15 14.32 -15 15 C-13.02 14.67 -11.04 14.34 -9 14 C-9 12.02 -9 10.04 -9 8 C-8.34 8 -7.68 8 -7 8 C-7 7.01 -7 6.02 -7 5 C-3.535 4.505 -3.535 4.505 0 4 C0 2.68 0 1.36 0 0 Z " fill="#A7A7A7" transform="translate(143,71)"/>
<path d="M0 0 C2.20770805 -0.08165496 4.41630425 -0.13948488 6.625 -0.1875 C7.85476562 -0.22230469 9.08453125 -0.25710937 10.3515625 -0.29296875 C14.26407664 0.0212053 16.64070218 1.03093467 20 3 C20 3.99 20 4.98 20 6 C21.65 5.67 23.3 5.34 25 5 C25.33 5.66 25.66 6.32 26 7 C25.34 7 24.68 7 24 7 C24 7.66 24 8.32 24 9 C21.75 9.75 21.75 9.75 19 10 C16.6875 8.0625 16.6875 8.0625 15 6 C14.01 6.66 13.02 7.32 12 8 C9.40625 8.01171875 9.40625 8.01171875 6.5 7.6875 C5.5409375 7.58824219 4.581875 7.48898438 3.59375 7.38671875 C1 7 1 7 -2 6 C-2 5.34 -2 4.68 -2 4 C-2.99 3.67 -3.98 3.34 -5 3 C-4.360625 2.87625 -3.72125 2.7525 -3.0625 2.625 C-2.0415625 2.315625 -2.0415625 2.315625 -1 2 C-0.67 1.34 -0.34 0.68 0 0 Z M0 4 C0 4.33 0 4.66 0 5 C2.31 5.33 4.62 5.66 7 6 C7.66 5.01 8.32 4.02 9 3 C9.99 2.34 10.98 1.68 12 1 C7.12335991 0.65166856 4.22949995 1.58314288 0 4 Z " fill="#171717" transform="translate(98,86)"/>
<path d="M0 0 C3.96 0.33 7.92 0.66 12 1 C12 1.66 12 2.32 12 3 C12.61875 3.12375 13.2375 3.2475 13.875 3.375 C16 4 16 4 18 6 C18.99 5.67 19.98 5.34 21 5 C21 5.99 21 6.98 21 8 C18.03821227 9.67110042 15.62928808 10.32682752 12.25 10.625 C11.45078125 10.69976562 10.6515625 10.77453125 9.828125 10.8515625 C9.22484375 10.90054688 8.6215625 10.94953125 8 11 C8 10.34 8 9.68 8 9 C7.01 9 6.02 9 5 9 C5 7.68 5 6.36 5 5 C5.99 4.67 6.98 4.34 8 4 C5.36 3.01 2.72 2.02 0 1 C0 0.67 0 0.34 0 0 Z " fill="#141414" transform="translate(128,91)"/>
<path d="M0 0 C1.32 0.33 2.64 0.66 4 1 C4.061875 1.61875 4.12375 2.2375 4.1875 2.875 C4.828919 5.27761141 4.828919 5.27761141 7.5625 6.25 C8.366875 6.4975 9.17125 6.745 10 7 C9.67 7.99 9.34 8.98 9 10 C8.34 9.34 7.68 8.68 7 8 C3.87185486 7.75639927 3.87185486 7.75639927 0.375 7.875 C-1.40777344 7.90207031 -1.40777344 7.90207031 -3.2265625 7.9296875 C-4.59941406 7.96449219 -4.59941406 7.96449219 -6 8 C-6 8.66 -6 9.32 -6 10 C-3.69 10 -1.38 10 1 10 C1 10.33 1 10.66 1 11 C-2.96 11 -6.92 11 -11 11 C-10.67 9.02 -10.34 7.04 -10 5 C-5.05 4.01 -5.05 4.01 0 3 C0 2.01 0 1.02 0 0 Z " fill="#373737" transform="translate(148,79)"/>
<path d="M0 0 C3.4375 1.5 3.4375 1.5 6 3 C4.68 3.33 3.36 3.66 2 4 C2 5.32 2 6.64 2 8 C2.99 8 3.98 8 5 8 C5 8.66 5 9.32 5 10 C0.545 10.495 0.545 10.495 -4 11 C-4 9 -4 9 -3 8 C-3.9590625 7.566875 -3.9590625 7.566875 -4.9375 7.125 C-7 6 -7 6 -8 4 C-8.99 3.67 -9.98 3.34 -11 3 C-10.34 3 -9.68 3 -9 3 C-9 2.34 -9 1.68 -9 1 C-5.92805092 -0.53597454 -3.39755707 -0.2265038 0 0 Z " fill="#4D4D4D" transform="translate(131,92)"/>
<path d="M0 0 C0 3 0 3 -1 6 C-0.91538508 7.73324119 -0.76395645 9.46392812 -0.5625 11.1875 C-0.46066406 12.08855469 -0.35882813 12.98960938 -0.25390625 13.91796875 C-0.12822266 14.94857422 -0.12822266 14.94857422 0 16 C-0.66 16.33 -1.32 16.66 -2 17 C-3.88391785 13.73454239 -4.49287967 10.71888239 -5 7 C-6.32 7 -7.64 7 -9 7 C-9 7.66 -9 8.32 -9 9 C-13.455 9.495 -13.455 9.495 -18 10 C-18 9.01 -18 8.02 -18 7 C-17.1646875 6.85304688 -17.1646875 6.85304688 -16.3125 6.703125 C-10.75565875 5.61428449 -4.15811012 4.15811012 0 0 Z " fill="#4D4D4D" transform="translate(154,95)"/>
<path d="M0 0 C0.99 0.33 1.98 0.66 3 1 C2.67 1.66 2.34 2.32 2 3 C1.63234839 7.64816683 2.43696558 10.60100855 4.5 14.75 C7 19.83333333 7 19.83333333 7 22 C7.66 22 8.32 22 9 22 C9 22.66 9 23.32 9 24 C6.70703125 23.984375 6.70703125 23.984375 4 23 C2.60579091 20.35070029 1.62336422 18.05512338 0.6875 15.25 C0.42388672 14.53328125 0.16027344 13.8165625 -0.11132812 13.078125 C-1.4313188 9.34786565 -2.55608454 6.00380866 -2 2 C-1.34 1.34 -0.68 0.68 0 0 Z " fill="#9A9A9A" transform="translate(152,62)"/>
<path d="M0 0 C0.66 0 1.32 0 2 0 C1.67 1.32 1.34 2.64 1 4 C1.78375 3.505 2.5675 3.01 3.375 2.5 C6 1 6 1 8 1 C6.125 5.875 6.125 5.875 5 7 C6.65 7 8.3 7 10 7 C10.33 6.34 10.66 5.68 11 5 C11 6.98 11 8.96 11 11 C8.69 11.66 6.38 12.32 4 13 C3.67 11.02 3.34 9.04 3 7 C1.35 7 -0.3 7 -2 7 C-1.125 1.125 -1.125 1.125 0 0 Z " fill="#C6C6C6" transform="translate(123,74)"/>
<path d="M0 0 C2.31 0.33 4.62 0.66 7 1 C6.34 2.32 5.68 3.64 5 5 C3.68 5 2.36 5 1 5 C4.45474101 12.06453797 4.45474101 12.06453797 8.375 18.875 C10 22 10 22 9.75 24.4375 C9.5025 24.953125 9.255 25.46875 9 26 C8.34 25.67 7.68 25.34 7 25 C7.33 24.34 7.66 23.68 8 23 C7.34 23 6.68 23 6 23 C4.98571486 20.96539231 3.98913211 18.92195394 3 16.875 C2.443125 15.73804687 1.88625 14.60109375 1.3125 13.4296875 C-0.01999892 9.94774092 -0.25021749 7.6802823 0 4 C0 3.01 0 2.02 0 1 C0 0.67 0 0.34 0 0 Z " fill="#3B3B3B" transform="translate(153,61)"/>
<path d="M0 0 C-0.33 1.32 -0.66 2.64 -1 4 C-4.01031744 4.93423645 -4.86650268 5.04449911 -8 4 C-8 4.99 -8 5.98 -8 7 C-8.99 7 -9.98 7 -11 7 C-11 7.66 -11 8.32 -11 9 C-11.66 9 -12.32 9 -13 9 C-12.34 6.36 -11.68 3.72 -11 1 C-3.375 -1.125 -3.375 -1.125 0 0 Z " fill="#D7D7D7" transform="translate(144,72)"/>
<path d="M0 0 C1.875 0.25 1.875 0.25 4 1 C5.25 3.0625 5.25 3.0625 6 5 C3.41073669 7.58926331 1.97294721 7.37398043 -1.625 7.625 C-2.62789062 7.69976562 -3.63078125 7.77453125 -4.6640625 7.8515625 C-5.82035156 7.92503906 -5.82035156 7.92503906 -7 8 C-7 7.01 -7 6.02 -7 5 C-3.535 4.505 -3.535 4.505 0 4 C0 2.68 0 1.36 0 0 Z " fill="#B0B0B0" transform="translate(143,71)"/>
<path d="M0 0 C0 1.32 0 2.64 0 4 C-4.29 3.67 -8.58 3.34 -13 3 C-13 2.34 -13 1.68 -13 1 C-8.62426048 0.40667939 -4.42471556 -0.13827236 0 0 Z " fill="#0C0C0C" transform="translate(155,86)"/>
<path d="M0 0 C0 0.99 0 1.98 0 3 C-1.65 3 -3.3 3 -5 3 C-5 3.66 -5 4.32 -5 5 C-2.69 5 -0.38 5 2 5 C2 5.33 2 5.66 2 6 C-1.96 6 -5.92 6 -10 6 C-9.34 5.01 -8.68 4.02 -8 3 C-8 2.34 -8 1.68 -8 1 C-5.23735711 0.40267181 -2.83967231 0 0 0 Z " fill="#272727" transform="translate(147,84)"/>
<path d="M0 0 C1.2065625 0.0309375 1.2065625 0.0309375 2.4375 0.0625 C1.1175 0.3925 -0.2025 0.7225 -1.5625 1.0625 C-1.5625 2.0525 -1.5625 3.0425 -1.5625 4.0625 C-6.67486781 6.13684732 -11.02580893 6.30674065 -16.4375 6.1875 C-17.613125 6.17396484 -17.613125 6.17396484 -18.8125 6.16015625 C-20.72930055 6.13678063 -22.64594191 6.10091653 -24.5625 6.0625 C-24.5625 5.7325 -24.5625 5.4025 -24.5625 5.0625 C-23.54929687 5.02511719 -22.53609375 4.98773438 -21.4921875 4.94921875 C-20.14059061 4.88351612 -18.78902971 4.81707029 -17.4375 4.75 C-16.77234375 4.72744141 -16.1071875 4.70488281 -15.421875 4.68164062 C-9.5314092 4.36401747 -5.18005212 0.12634273 0 0 Z " fill="#5E5E5E" transform="translate(139.5625,82.9375)"/>
<path d="M0 0 C2.31 0 4.62 0 7 0 C7 0.99 7 1.98 7 3 C4 5 4 5 0.8125 4.625 C-0.115625 4.41875 -1.04375 4.2125 -2 4 C-1.34 2.68 -0.68 1.36 0 0 Z " fill="#111111" transform="translate(106,89)"/>
<path d="M0 0 C0.99 0.33 1.98 0.66 3 1 C4.66362417 1.34820041 6.32995171 1.68404492 8 2 C8 2.66 8 3.32 8 4 C9.32 4.33 10.64 4.66 12 5 C7.545 5.495 7.545 5.495 3 6 C3 5.34 3 4.68 3 4 C2.01 4 1.02 4 0 4 C0 2.68 0 1.36 0 0 Z " fill="#2A2A2A" transform="translate(133,96)"/>
<path d="M0 0 C0.99 0.33 1.98 0.66 3 1 C2.34 1 1.68 1 1 1 C1.33 1.99 1.66 2.98 2 4 C4.97 4.495 4.97 4.495 8 5 C8 5.99 8 6.98 8 8 C7.01 7.67 6.02 7.34 5 7 C3.68 7 2.36 7 1 7 C0.34 6.01 -0.32 5.02 -1 4 C-1.99 3.67 -2.98 3.34 -4 3 C-3.34 3 -2.68 3 -2 3 C-2 2.34 -2 1.68 -2 1 C-1.34 0.67 -0.68 0.34 0 0 Z " fill="#5F5F5F" transform="translate(124,92)"/>
<path d="M0 0 C-1.875 5.75 -1.875 5.75 -3 8 C-4.32 8 -5.64 8 -7 8 C-7.33 7.34 -7.66 6.68 -8 6 C-7.67 5.34 -7.34 4.68 -7 4 C-6.34 4 -5.68 4 -5 4 C-5 3.34 -5 2.68 -5 2 C-2 0 -2 0 0 0 Z " fill="#232323" transform="translate(160,89)"/>
<path d="M0 0 C2.31 0.33 4.62 0.66 7 1 C6.34 2.32 5.68 3.64 5 5 C3.68 5 2.36 5 1 5 C1.33 7.31 1.66 9.62 2 12 C0 10 0 10 -0.125 7.0625 C-0.08375 6.051875 -0.0425 5.04125 0 4 C0 3.01 0 2.02 0 1 C0 0.67 0 0.34 0 0 Z " fill="#505050" transform="translate(153,61)"/>
<path d="M0 0 C0.66 0 1.32 0 2 0 C1.67 0.99 1.34 1.98 1 3 C0.34 3 -0.32 3 -1 3 C-1 3.99 -1 4.98 -1 6 C-3.97 6 -6.94 6 -10 6 C-9.67 5.34 -9.34 4.68 -9 4 C-7.02 4 -5.04 4 -3 4 C-3 3.34 -3 2.68 -3 2 C-2.01 2 -1.02 2 0 2 C0 1.34 0 0.68 0 0 Z " fill="#626262" transform="translate(144,106)"/>
<path d="M0 0 C1.23556641 0.01740234 1.23556641 0.01740234 2.49609375 0.03515625 C3.32238281 0.04417969 4.14867187 0.05320312 5 0.0625 C5.63808594 0.07410156 6.27617187 0.08570312 6.93359375 0.09765625 C7.26359375 1.08765625 7.59359375 2.07765625 7.93359375 3.09765625 C2.56053676 4.06656817 2.56053676 4.06656817 -0.06640625 4.09765625 C-2.06640625 2.66015625 -2.06640625 2.66015625 -3.06640625 1.09765625 C-2.06640625 0.09765625 -2.06640625 0.09765625 0 0 Z " fill="#9D9D9D" transform="translate(139.06640625,77.90234375)"/>
<path d="M0 0 C1.65 0.33 3.3 0.66 5 1 C5 1.99 5 2.98 5 4 C2.69 4.33 0.38 4.66 -2 5 C-2.33 4.34 -2.66 3.68 -3 3 C-2.01 2.34 -1.02 1.68 0 1 C0 0.67 0 0.34 0 0 Z " fill="#6A6A6A" transform="translate(131,101)"/>
<path d="M0 0 C1.77007714 -0.08114106 3.54122098 -0.13925505 5.3125 -0.1875 C6.29863281 -0.22230469 7.28476563 -0.25710937 8.30078125 -0.29296875 C11 0 11 0 12.85546875 1.51171875 C13.23316406 2.00285156 13.61085938 2.49398437 14 3 C11.36 3 8.72 3 6 3 C6 2.67 6 2.34 6 2 C3.03 1.505 3.03 1.505 0 1 C0 0.67 0 0.34 0 0 Z " fill="#1F1F1F" transform="translate(101,86)"/>
<path d="M0 0 C0 0.66 0 1.32 0 2 C-4.29 2.66 -8.58 3.32 -13 4 C-12 2 -12 2 -9.3125 0.875 C-6.0420565 0.01110926 -3.36293818 -0.16013991 0 0 Z " fill="#717171" transform="translate(148,80)"/>
<path d="M0 0 C3.63 0.33 7.26 0.66 11 1 C10.34 2.32 9.68 3.64 9 5 C4.545 3.02 4.545 3.02 0 1 C0 0.67 0 0.34 0 0 Z " fill="#2A2A2A" transform="translate(128,91)"/>
<path d="M0 0 C0.99 0.33 1.98 0.66 3 1 C1.515 4.465 1.515 4.465 0 8 C-0.66 7.67 -1.32 7.34 -2 7 C-2.125 4.625 -2.125 4.625 -2 2 C-1.34 1.34 -0.68 0.68 0 0 Z " fill="#A5A5A5" transform="translate(152,62)"/>
<path d="M0 0 C2.475 0.99 2.475 0.99 5 2 C4.525625 2.45375 4.05125 2.9075 3.5625 3.375 C1.90972192 4.93258204 1.90972192 4.93258204 1 7 C-1.0625 7.625 -1.0625 7.625 -3 8 C-3 7.34 -3 6.68 -3 6 C-2.01 6 -1.02 6 0 6 C0 4.02 0 2.04 0 0 Z " fill="#AFAFAF" transform="translate(134,79)"/>
<path d="M0 0 C3.68266103 0.59950296 7.34543185 1.24758891 11 2 C7.77856724 4.14762184 6.7404533 4.561068 3 4 C1.1875 2 1.1875 2 0 0 Z " fill="#989898" transform="translate(130,69)"/>
<path d="M0 0 C-0.99 0.495 -0.99 0.495 -2 1 C-2 1.99 -2 2.98 -2 4 C-3.32 3.67 -4.64 3.34 -6 3 C-6 2.01 -6 1.02 -6 0 C-3.50907189 -1.24546405 -2.58919267 -0.7767578 0 0 Z " fill="#3E3E3E" transform="translate(131,93)"/>
<path d="M0 0 C0.33 0.66 0.66 1.32 1 2 C-1.31 2.33 -3.62 2.66 -6 3 C-5.67 3.99 -5.34 4.98 -5 6 C-5.99 6.33 -6.98 6.66 -8 7 C-7.67 5.35 -7.34 3.7 -7 2 C-4.69 1.34 -2.38 0.68 0 0 Z " fill="#464646" transform="translate(145,82)"/>
<path d="M0 0 C1.5625 1.25 1.5625 1.25 3 3 C2.6875 5.1875 2.6875 5.1875 2 7 C1.34 6.67 0.68 6.34 0 6 C0.33 5.34 0.66 4.68 1 4 C0.34 4 -0.32 4 -1 4 C-1.33 3.01 -1.66 2.02 -2 1 C-1.34 0.67 -0.68 0.34 0 0 Z " fill="#555555" transform="translate(160,80)"/>
<path d="M0 0 C0.86625 0.3403125 0.86625 0.3403125 1.75 0.6875 C1.75 1.3475 1.75 2.0075 1.75 2.6875 C-0.89 2.6875 -3.53 2.6875 -6.25 2.6875 C-2.80384615 -0.38942308 -2.80384615 -0.38942308 0 0 Z " fill="#C0C0C0" transform="translate(131.25,70.3125)"/>
</svg>
